<?xml version="1.0" encoding="utf-8"?>
<!-- Generator: Adobe Illustrator 16.0.0, SVG Export Plug-In . SVG Version: 6.00 Build 0)  -->
<!DOCTYPE svg PUBLIC "-//W3C//DTD SVG 1.1//EN" "http://www.w3.org/Graphics/SVG/1.1/DTD/svg11.dtd">
<svg version="1.1" id="Layer_1" xmlns="http://www.w3.org/2000/svg" xmlns:xlink="http://www.w3.org/1999/xlink" x="0px" y="0px"
	 width="104.633px" height="80.658px" viewBox="0 0 104.633 80.658" enable-background="new 0 0 104.633 80.658"
	 xml:space="preserve">
<path fill="#E55028" d="M70.098,32.877c-0.951,1.28-2.524,2.064-4.393,2.151c-2.688,0.125-3.996-2.211-4.226-7.18
	c-0.196-4.222,0.7-12.311,0.554-15.448l-0.104-2.24c-0.896,0.041-5.062,17.528-7.315,20.628c-0.664,1.004-1.783,1.918-3.165,1.98
	c-3.175,0.147-5.362-3.42-5.619-8.948c-0.168-3.625,0.494-10.317,0.142-17.937c-0.038-0.824-0.203-1.152-0.353-1.146
	c-2.989,0.14-9.656,20.25-9.976,30.299c-0.044,1.463,0.219,3.921,0.578,5.215c-3.605-0.244-7.464-0.29-7.632-3.914
	c-0.153-3.324,1.577-10.404,3.645-16.679c1.444-4.371,7.037-19.381,12.938-19.653c6.537-0.304,5.775,11.523,6.293,22.693
	c0.083,1.791,0.145,3.101,0.375,4.062C57.982,8.958,59.123,3.7,62.783,3.531c2.093-0.099,3.717,2.635,3.887,6.296
	c0.1,2.129,0.073,6.435,0.195,9.05C67.411,30.645,68.626,30.214,70.098,32.877z"/>
<path fill="#E55028" d="M90.098,15.69c-0.049,2.364-6.18,11.961-12.002,11.843c-3.202-0.066-4.8-2.14-4.743-4.866
	c0.049-2.365,1.188-4.745,2.058-6.295c-5.588-0.951-6.262-3.552-6.231-5.006c0.06-2.911,2.856-4.385,4.64-4.349
	c1.419,0.029,1.832,1.202,1.815,1.968c-0.018,0.872-0.401,1.922-1.013,3.182c2.754,0.678,7.27,0.731,7.226,2.882
	c-0.04,1.964-3.349,5.211-3.402,7.868c-0.021,0.98,0.404,1.536,1.17,1.552c3.057,0.062,6.985-6.848,8.765-10.234
	C89.65,14.479,90.113,14.964,90.098,15.69z"/>
<path fill="#F9B43B" d="M94.033,41.441c-0.035,1.724-4.502,8.717-8.746,8.629c-2.334-0.048-3.498-1.558-3.457-3.546
	c0.035-1.725,0.867-3.457,1.5-4.587c-4.072-0.692-4.562-2.588-4.541-3.646c0.043-2.121,2.082-3.194,3.381-3.168
	c1.034,0.021,1.334,0.876,1.323,1.434c-0.013,0.636-0.293,1.399-0.737,2.318c2.007,0.494,5.295,0.533,5.264,2.099
	c-0.029,1.434-2.438,3.797-2.479,5.733c-0.015,0.716,0.295,1.12,0.853,1.132c2.228,0.046,5.09-4.99,6.387-7.458
	C93.706,40.559,94.044,40.912,94.033,41.441z"/>
<path fill="#F9B43B" d="M94.715,58.909c-0.027,1.356-3.547,6.865-6.89,6.798c-1.838-0.038-2.755-1.229-2.723-2.794
	c0.027-1.356,0.683-2.725,1.181-3.613c-3.207-0.545-3.594-2.038-3.577-2.873c0.035-1.671,1.642-2.516,2.664-2.495
	c0.815,0.018,1.052,0.689,1.043,1.13c-0.01,0.499-0.23,1.104-0.582,1.825c1.581,0.39,4.173,0.42,4.147,1.655
	c-0.023,1.127-1.922,2.989-1.954,4.517c-0.011,0.562,0.231,0.881,0.672,0.891c1.754,0.035,4.01-3.933,5.031-5.876
	C94.458,58.215,94.724,58.492,94.715,58.909z"/>
<path fill="#8BC334" d="M88.913,25.685c0.041-1.982,2.2-3.44,4.766-3.389c2.611,0.053,4.618,1.308,4.586,2.902
	c-0.054,2.564-2.67,5.125-5.283,5.071C90.368,30.217,88.882,27.185,88.913,25.685z"/>
<path fill="#F9B43B" d="M50.903,68.48c0.025-1.24,1.375-2.151,2.979-2.119c1.634,0.033,2.889,0.817,2.868,1.814
	c-0.033,1.604-1.669,3.204-3.303,3.171C51.812,71.312,50.883,69.418,50.903,68.48z"/>
<path fill="#E55028" d="M30.218,46.802c0.025-1.241,1.375-2.152,2.979-2.119c1.633,0.033,2.888,0.817,2.868,1.815
	c-0.033,1.603-1.669,3.203-3.303,3.17C31.127,49.635,30.198,47.74,30.218,46.802z"/>
<path fill="#F9B43B" d="M60.528,55.991c-0.062,2.991-2.562,6.684-8.605,6.56c-3.44-0.07-5.892-1.707-5.855-3.444
	c0.011-0.508,0.35-0.979,0.894-1.297c0.917,0.557,2.042,1.148,4.196,1.192c3.381,0.068,4.956-2.262,5.003-4.596
	c0.046-2.273-1.326-3.921-3.36-4.021c-1.734-0.036-3.321-0.037-4.502,0.626c-0.98-0.349-1.445-1.047-1.432-1.705
	c0.026-1.257,1.053-1.744,2.37-1.718c0.568,0.012,1.165,0.113,1.76,0.274c2.111-0.734,5.241-3.005,5.308-6.236
	c0.057-2.751-2.272-4.478-6.133-4.557c-0.809-0.017-1.647,0.058-2.518,0.158c0.202,0.334,0.314,0.666,0.309,0.994
	c-3.89,7.224-4.585,22.177-1.899,26.931c-0.398,0.441-2.318,0.643-3.186,0.624c-2.153-0.044-3.536-1.329-3.762-3.43
	c-0.854-6.542,1.331-16.736,3.201-21.785c0.256-0.804,0.539-1.456,0.85-2.049c-1.419,0.599-2.662,1.383-3.578,2.23
	c-0.981-0.288-1.656-0.933-1.645-1.561c0.004-0.209,0.068-0.388,0.19-0.596c0.684-1.152,5.832-4.101,12.625-3.961
	c8.826,0.182,11.26,4.183,11.205,6.814c-0.077,3.8-4.174,6.472-7.243,7.335C58.62,49.757,60.59,52.97,60.528,55.991z"/>
<path fill="#F9B43B" d="M84.269,41.924c-0.025,1.235-4.681,9.245-9.138,9.153c-1.82-0.037-2.973-1.038-3.353-3.129
	c-1.301,1.567-3.055,3.027-5.007,2.987c-2.277-0.047-3.386-1.501-3.331-4.233c0.022-1.104,0.296-3.312,0.343-5.558
	c0.03-1.461-0.02-2.214-0.226-3.291c0.945-0.143,1.859-0.287,2.771-0.269c1.593,0.032,2.261,0.827,2.225,2.647
	c-0.022,1.074-0.368,3.67-0.405,5.46c-0.025,1.236,0.19,1.728,0.55,1.734c0.488,0.01,1.774-0.809,3.017-2.703
	c0.126-1.396,0.32-2.856,0.346-4.094c0.023-1.171-0.057-2.052-0.241-2.574c0.556-0.088,1.208-0.172,1.794-0.159
	c2.082,0.042,3.002,1.135,2.95,3.704c-0.018,0.847-0.453,3.083-0.485,4.646c-0.031,1.496,0.149,2.216,0.735,2.228
	c1.105,0.022,4.276-3.882,5.82-7.722C83.419,40.539,84.29,40.915,84.269,41.924z"/>
<path fill="#F9B43B" d="M77.202,60.895c-2.256,0.077-4.504,0.913-6.464,2.147l-0.015,0.711c-0.08,3.894-1.665,10.648-5.854,10.562
	c-1.74-0.034-2.698-1.084-2.661-2.896c0.059-2.818,2.302-5.811,5.189-8.077c0.003-0.172,0.006-0.319-0.017-0.444
	c-0.851,0.867-1.791,1.288-2.795,1.269c-1.666-0.034-2.599-1.182-2.559-3.115c0.06-2.941,3.229-5.743,6.269-5.681
	c1.003,0.021,1.999,0.435,1.982,1.242c-0.012,0.612-0.657,0.99-1.986,1.306c-0.165-0.418-0.381-0.595-0.601-0.6
	c-1.054-0.021-2.375,2.279-2.407,3.848c-0.014,0.687,0.176,0.959,0.471,0.965c0.638,0.014,1.696-1.46,1.356-2.789
	c1.192-0.761,1.51-0.754,1.975-0.745c1.03,0.021,1.481,0.717,1.613,2.632c1.906-0.965,3.879-1.538,5.545-1.504
	C76.858,59.736,77.389,60.115,77.202,60.895z M67.22,66.058c-1.606,1.877-2.631,4.015-2.672,5.999
	c-0.011,0.516,0.104,0.858,0.399,0.864C66.074,72.944,66.914,69.04,67.22,66.058z"/>
<path fill="#F9B43B" d="M87.722,60.522c-0.024,1.177-4.121,7.343-8.677,7.248c-3.455-0.069-5.903-2.521-5.835-5.879
	c0.066-3.233,2.178-5.763,4.822-5.709c1.887,0.039,2.989,1.262,2.948,3.271c-0.044,2.155-1.718,3.715-3.186,4.688
	c0.475,0.794,1.151,1.25,1.984,1.268c1.886,0.039,4.408-2.264,6.316-5.68C87.083,59.431,87.739,59.713,87.722,60.522z
	 M77.056,60.843c-0.011,0.467,0.005,0.907,0.07,1.301c0.775-0.794,1.382-1.712,1.405-2.839c0.011-0.539-0.176-0.91-0.397-0.915
	C77.669,58.38,77.081,59.594,77.056,60.843z"/>
<polygon fill="#E55028" points="0.004,29.345 0.002,29.345 0,29.35 "/>
<g>
	<path fill="#E55028" d="M16.591,51.478c0.338-0.337,0.675-0.673,1.104-1.103c0.116,0.836-0.023,1.49-0.405,2.104
		c-0.055,0.118-0.11,0.234-0.164,0.352c-0.106,0.34-0.333,0.576-0.631,0.754c-0.066,0.046-0.136,0.094-0.205,0.141
		c-0.119,0.075-0.241,0.148-0.36,0.223c-0.079,0.021-0.158,0.037-0.237,0.057c0.008,0.119,0.015,0.239,0.022,0.358
		c1.228,0.24,2.442,0.301,3.628-0.205c1.135-0.483,1.828-1.464,2.631-2.317c0.105-0.254,0.296-0.423,0.523-0.562
		c0.157-0.272,0.365-0.496,0.646-0.646c0.177-0.271,0.427-0.451,0.722-0.569c0.478-0.575,1.177-0.62,1.832-0.775
		c-0.083-0.703-0.898-0.644-1.186-1.136c-1.961-1.289-3.993-2.394-6.421-2.469c-0.127,0.037-0.252,0.076-0.38,0.114
		c-0.26,0.09-0.516,0.183-0.775,0.264c-2.305,0.732-4.358,2.038-6.617,2.875c-1.697,0.631-3.445,0.862-5.247,0.731
		c-0.536-0.04-1.04-0.441-1.604-0.149c0.951,1.729,2.491,2.779,4.219,3.572c1.991,0.916,4.023,0.583,6.045,0.054
		c0.499-0.234,0.998-0.472,1.496-0.706C15.681,52.117,16.136,51.796,16.591,51.478z"/>
	<path fill="#F9B43B" d="M32.426,58.221c-1.174-0.394-2.376-0.705-3.583-0.242c-1.695,0.652-3.396,1.288-5.128,1.84
		c-1.39,0.442-2.796,0.794-4.282,0.647c-0.32-0.032-0.71-0.216-1.012,0.236c2.812,1.148,5.504,2.677,8.71,1.845
		c0.903-0.364,1.809-0.728,2.711-1.091c0.066-0.042,0.134-0.082,0.199-0.122c1.265-0.631,2.45-1.41,3.771-1.928
		C33.724,58.573,32.918,58.577,32.426,58.221z"/>
	<path fill="#F9B43B" d="M22.016,35.08c-0.822-0.457-1.883-0.437-2.761-0.385c-1.201,0.067-2.361,0.073-3.532-0.164
		c-0.093-0.046-0.184-0.09-0.273-0.133c0.328,0.908,0.994,1.562,1.633,2.257c0.411,0.443,0.821,0.539,1.391,0.58
		c1.491,0.108,2.934-0.383,4.417-0.295c0.226,0.059,0.452,0.114,0.678,0.174C23.249,36.281,22.77,35.498,22.016,35.08z"/>
	<path fill="#E55028" d="M38.82,70.154c-1.171-0.493-2.296-0.518-3.312,0.303c-0.572,0.464-1.193,0.786-1.996,1.031
		c1.17,0.57,2.312,0.803,3.478,0.629c0.804-0.116,1.623-0.376,2.042-1.234C39.193,70.544,39.27,70.343,38.82,70.154z"/>
</g>
</svg>
